<?xml version="1.0" encoding="UTF-8"?>
<svg id="Capa_1" data-name="Capa 1" xmlns="http://www.w3.org/2000/svg" viewBox="0 0 174.06 176.7">
  <defs>
    <style>
      .cls-1 {
        fill: #6f4e91;
      }
    </style>
  </defs>
  <path class="cls-1" d="m89.74,0c2.48.86,4.74,2.05,6.42,4.15,1.71,2.13,2.67,4.52,2.67,7.29,0,29.07,0,58.14-.01,87.21,0,6.54-5.41,11.82-11.91,11.77-6.44-.05-11.74-5.3-11.74-11.77-.02-29.07-.02-58.14,0-87.21,0-4.86,3.1-9.18,7.64-10.85.48-.18.95-.39,1.43-.58,1.84,0,3.68,0,5.52,0Z"/>
  <path class="cls-1" d="m86.84,176.67c-25.36-.36-46.82-9.74-64.06-28.34C10.54,135.11,3.1,119.39.81,101.51c-3.22-25.13,3.17-47.71,19.2-67.4,7.72-9.49,17.24-16.84,28.19-22.26,7.89-3.9,16.88,1.29,17.3,10.02.22,4.5-1.69,8.19-5.59,10.59-3.76,2.31-7.73,4.29-11.24,7.01-13.15,10.21-21.3,23.49-23.94,39.92-2.59,16.12.42,31.26,9.52,44.89,10.2,15.28,24.42,24.71,42.65,27.65,18.53,2.98,35.28-1.51,49.82-13.28,12.53-10.14,20.22-23.34,22.57-39.41,2.67-18.28-1.7-34.74-13.17-49.25-5.16-6.53-11.5-11.7-18.82-15.65-2.9-1.57-5.74-3.16-7.39-6.22-2.46-4.55-1.75-10.17,1.8-13.89,3.74-3.9,9.31-4.88,14.24-2.31,24.54,12.79,40.39,32.57,46.04,59.68,5.84,27.98-.8,53.23-19.4,75.03-12.9,15.11-29.35,24.43-48.8,28.42-5.57,1.14-11.22,1.78-16.96,1.59Z"/>
</svg>