<?xml version="1.0" encoding="UTF-8"?>
<svg id="Capa_1" data-name="Capa 1" xmlns="http://www.w3.org/2000/svg" viewBox="0 0 170.08 170.08">
  <defs>
    <style>
      .cls-1 {
        fill: #6f4e91;
      }
    </style>
  </defs>
  <path class="cls-1" d="m85.09,133.69c-26.69.44-48.83-22.19-48.81-48.7.02-26.37,22.06-48.76,48.89-48.7,26.49.06,48.73,22.25,48.61,48.98-.12,26.35-22.12,48.82-48.69,48.42Zm-.13-84.88c-20.75.51-36.18,16.62-36.06,36.35.13,20.37,16.12,36.02,36.12,36.01,20.33,0,36.18-16,36.15-36.17-.04-20.52-16.26-35.87-36.21-36.19Z"/>
  <path class="cls-1" d="m23.11,29.46c-.05-2.77,1.08-4.67,3.32-5.74,2.17-1.04,4.56-1.15,6.44.47,4.07,3.5,7.9,7.27,11.36,11.37,1.95,2.32,1.47,5.83-.65,7.96-2.17,2.19-5.75,2.66-8.11.63-4.02-3.45-7.71-7.28-11.26-11.22-.93-1.03-1.2-2.34-1.11-3.48Z"/>
  <path class="cls-1" d="m146.96,29.58c.15,1.62-.62,3.06-1.81,4.26-3.19,3.24-6.37,6.49-9.65,9.64-2.71,2.59-6.56,2.53-9.01.04-2.41-2.44-2.47-6.25.04-8.87,3.18-3.33,6.48-6.56,9.77-9.79,2.08-2.03,4.62-2.34,7.19-1.22,2.42,1.06,3.59,3.08,3.47,5.93Z"/>
  <path class="cls-1" d="m29.42,146.97c-2.72.03-4.57-1.07-5.64-3.21-1.09-2.16-1.25-4.56.35-6.45,3.5-4.15,7.34-8.01,11.5-11.5,2.31-1.94,5.83-1.41,7.95.73,2.12,2.13,2.6,5.65.65,7.96-3.46,4.1-7.35,7.81-11.34,11.4-1.03.93-2.36,1.17-3.47,1.07Z"/>
  <path class="cls-1" d="m146.97,140.6c.03,2.78-1.07,4.63-3.22,5.71-2.16,1.08-4.56,1.24-6.45-.36-4.14-3.51-8.01-7.34-11.5-11.5-1.94-2.31-1.4-5.84.74-7.95,2.14-2.12,5.65-2.6,7.96-.64,4.1,3.46,7.81,7.35,11.4,11.34.92,1.03,1.19,2.35,1.07,3.4Z"/>
  <path class="cls-1" d="m78.85,13.17c0-2.4-.03-4.8,0-7.19C78.92,2.46,81.51,0,85.06,0c3.53,0,6.13,2.5,6.17,6.02.04,4.79.05,9.59,0,14.39-.04,3.29-2.81,5.94-6.11,5.98-3.36.04-6.2-2.66-6.26-6.03-.04-2.4,0-4.8,0-7.19Z"/>
  <path class="cls-1" d="m13.16,78.85c2.4,0,4.8-.03,7.19,0,3.37.06,6.07,2.89,6.03,6.25-.03,3.3-2.68,6.08-5.97,6.11-4.86.05-9.72.06-14.57,0C2.47,91.17,0,88.51,0,85.07c0-3.47,2.42-6.12,5.78-6.2,2.46-.06,4.92-.01,7.38-.01Z"/>
  <path class="cls-1" d="m156.89,91.23c-2.4,0-4.8.04-7.19,0-3.37-.06-6.06-2.9-6.01-6.27.05-3.31,2.69-6.06,5.99-6.09,4.86-.05,9.72-.06,14.57,0,3.37.04,5.82,2.71,5.83,6.17,0,3.45-2.44,6.1-5.81,6.19-2.46.06-4.92.01-7.38.01Z"/>
  <path class="cls-1" d="m91.23,156.97c0,2.4.04,4.8,0,7.19-.07,3.48-2.71,5.94-6.27,5.91-3.43-.02-6.05-2.51-6.09-5.91-.05-4.86-.06-9.72,0-14.57.04-3.27,2.86-5.91,6.17-5.91,3.3,0,6.11,2.64,6.18,5.9.06,2.46.01,4.92.01,7.38Z"/>
</svg>