<?xml version="1.0" encoding="UTF-8"?>
<svg id="Capa_1" data-name="Capa 1" xmlns="http://www.w3.org/2000/svg" viewBox="0 0 167.89 170.08">
  <defs>
    <style>
      .cls-1 {
        fill: #6f4e91;
      }
    </style>
  </defs>
  <path class="cls-1" d="m26.77,59c-4.67-2.69-9.16-5.25-13.63-7.84-3.13-1.81-4.31-4.84-3.08-7.8,1.44-3.46,5.31-4.83,8.77-2.94,4.11,2.24,8.14,4.63,12.2,6.95.58.33,1.17.65,1.86,1.03.38-.85-.09-1.52-.26-2.16-1.7-6.55-3.49-13.08-5.19-19.63-.89-3.44.51-6.47,3.44-7.68,3.61-1.5,7.28.45,8.38,4.52,1.86,6.83,3.68,13.67,5.52,20.5,1.07,3.98,2.18,7.95,3.21,11.94.25.97.76,1.62,1.62,2.11,8.91,5.14,17.81,10.28,26.7,15.45,1.15.67,1.59.6,1.59-.86-.03-10.41-.03-20.82,0-31.23,0-1.14-.61-1.8-1.31-2.51-7.76-7.75-15.5-15.51-23.27-23.25-1.53-1.52-2.42-3.26-2.18-5.44.27-2.49,1.61-4.23,3.99-5.07,2.45-.87,4.64-.3,6.45,1.5,4.86,4.81,9.67,9.66,14.52,14.49.47.46.83,1.07,1.54,1.3.45-.55.23-1.19.24-1.77.02-4.62,0-9.24.02-13.86C77.91,2.94,80.6.02,84.02,0c3.39-.02,6.16,2.94,6.19,6.72.04,4.62,0,9.24.02,13.86,0,.58-.2,1.22.22,1.78.68-.14.99-.72,1.41-1.13,4.89-4.87,9.73-9.78,14.66-14.61,3.2-3.14,8.31-2.19,9.99,1.78,1.02,2.41.39,5.06-1.77,7.24-6.83,6.85-13.53,13.83-20.58,20.45-2.99,2.81-4.19,5.67-4.05,9.77.32,8.8.09,17.61.1,26.42,0,1.98.06,2.03,1.77,1.04,8.8-5.08,17.58-10.19,26.4-15.24,1.08-.62,1.53-1.49,1.83-2.61,2.75-10.35,5.53-20.69,8.3-31.03.32-1.19.63-2.38,1.37-3.41,1.73-2.38,4.72-3.22,7.39-2.07,2.78,1.19,4.25,4.17,3.43,7.37-1.66,6.5-3.46,12.96-5.16,19.45-.19.74-.91,1.71-.26,2.21.65.49,1.42-.43,2.09-.81,3.86-2.18,7.68-4.44,11.56-6.58,3.47-1.91,7.08-.98,8.76,2.15,1.64,3.06.48,6.56-2.84,8.48-4,2.32-8.01,4.6-12,6.92-.46.27-1.05.38-1.28,1,.42.54,1.06.54,1.64.69,6.6,1.78,13.2,3.51,19.78,5.34,3.08.86,4.76,2.88,4.89,5.54.21,4.41-3.49,7.46-7.77,6.33-10.71-2.84-21.41-5.7-32.09-8.61-1.35-.37-2.45-.28-3.67.43-8.72,5.1-17.46,10.15-26.22,15.18-1.28.73-1.33,1.2-.01,1.95,8.81,5.06,17.61,10.15,26.38,15.26,1.1.64,2.11.73,3.33.4,10.45-2.84,20.91-5.64,31.38-8.44,1.25-.33,2.49-.7,3.81-.4,2.77.63,4.52,2.63,4.69,5.38.18,3.03-1.46,5.63-4.39,6.5-4.07,1.21-8.19,2.24-12.29,3.34-3.25.87-6.5,1.75-10.24,2.75,1.65.98,2.88,1.72,4.13,2.44,3.46,2.01,6.96,3.96,10.39,6.02,2.22,1.33,3.21,3.45,2.85,5.97-.37,2.59-1.96,4.32-4.5,5.11-1.71.53-3.28.15-4.78-.71-4.01-2.29-8.02-4.59-12.03-6.88-.58-.33-1.1-.79-1.93-.85-.21.75.12,1.41.3,2.08,1.79,6.78,3.64,13.55,5.36,20.35.64,2.52-.36,4.62-2.4,6.14-2.06,1.53-4.68,1.57-6.77.25-1.62-1.02-2.38-2.61-2.86-4.38-2.1-7.84-4.2-15.69-6.3-23.54-.76-2.85-1.55-5.7-2.28-8.56-.26-1.03-.83-1.69-1.75-2.22-8.86-5.09-17.7-10.23-26.55-15.34-1.67-.97-1.75-.92-1.75,1.07,0,10.04.02,20.08-.03,30.12,0,1.36.45,2.3,1.39,3.23,7.69,7.64,15.34,15.32,23.01,22.98,1.74,1.74,2.94,3.69,2.46,6.25-.44,2.37-1.83,4.05-4.16,4.75-2.36.7-4.52.2-6.29-1.57-4.89-4.87-9.76-9.76-14.65-14.62-.46-.45-.79-1.1-1.74-1.25,0,1.95,0,3.84,0,5.72,0,3.51.02,7.02,0,10.53-.03,3.47-2.68,6.19-6,6.21-3.29.02-6.03-2.73-6.06-6.16-.03-4.8,0-9.61-.01-14.41,0-.6,0-1.2,0-1.86-.94.06-1.25.74-1.7,1.18-4.89,4.86-9.77,9.75-14.65,14.62-1.77,1.77-3.93,2.31-6.29,1.62-2.33-.67-3.74-2.35-4.2-4.71-.46-2.39.52-4.33,2.17-5.99,3.44-3.44,6.88-6.88,10.32-10.33,4.35-4.36,8.69-8.73,13.08-13.05.9-.89,1.29-1.82,1.29-3.09-.04-10.04-.02-20.08-.03-30.12,0-2.05-.07-2.09-1.87-1.05-8.79,5.09-17.58,10.2-26.39,15.25-.99.57-1.54,1.28-1.83,2.37-2.8,10.53-5.63,21.04-8.46,31.56-.22.83-.47,1.67-.86,2.43-1.36,2.7-4.44,3.95-7.17,2.97-3.01-1.08-4.84-3.98-4.09-6.96,1.69-6.74,3.53-13.45,5.3-20.17.19-.7.36-1.41.57-2.21-.88-.19-1.38.34-1.92.65-4.02,2.28-8,4.62-12.04,6.86-3.43,1.9-6.92,1.05-8.65-1.97-1.86-3.25-.79-6.66,2.77-8.73,4-2.32,8.01-4.6,12-6.92.46-.27,1.05-.39,1.34-1.21-3.27-.88-6.51-1.76-9.75-2.63-4.1-1.1-8.22-2.14-12.3-3.33-2.77-.8-4.65-3.49-4.49-6.1.17-2.75,2.19-5.07,4.94-5.77,1.26-.32,2.45-.04,3.64.28,10.4,2.79,20.81,5.56,31.19,8.42,1.62.45,2.91.27,4.35-.58,8.5-4.99,17.04-9.89,25.56-14.84.5-.29,1.33-.41,1.29-1.14-.04-.69-.84-.82-1.35-1.11-8.36-4.85-16.76-9.65-25.07-14.58-1.8-1.07-3.4-1.22-5.39-.67-10.2,2.84-20.43,5.53-30.64,8.32-2.15.59-4.15.52-5.95-.88-2.06-1.6-2.76-3.79-2.23-6.26.5-2.34,2.03-3.92,4.38-4.55,6.42-1.73,12.84-3.42,19.26-5.15.86-.23,1.83-.26,2.79-1.09Z"/>
</svg>