<?xml version="1.0" encoding="UTF-8"?>
<svg id="Capa_1" data-name="Capa 1" xmlns="http://www.w3.org/2000/svg" viewBox="0 0 170.08 170.08">
  <defs>
    <style>
      .cls-1 {
        fill: #6f4e91;
      }
    </style>
  </defs>
  <path class="cls-1" d="m167.72,6.61c-1.34-6.91-4.05-8.03-11.07-5.06-3.95,1.67-8.13,2.69-12.41,3.37-16.82,2.67-33.86,2.4-50.85,2.84-15.18.4-30.03,2.53-44.34,7.26C14.99,26.26-3.11,51.43.44,83.26c.71,6.37,2.07,12.75,5.06,18.7,1.52,3.03,4.12,4.71,7.88,3.68,3.89-1.06,4.63-3.8,3.73-7.03-.21-.75-.5-1.47-.7-2.22-3.93-14.85-4.17-29.52,3.81-43.48,8.91-15.6,24.57-23.72,42.77-28.5,17.47-4.59,35.63-4.67,53.64-5.54,11.8-.57,23.6-1.14,34.91-4.5,3.73-1.11,5.08-.18,5.09,3.22.02,7.05-.03,14.07-1.08,21.08-3.63,24.19-13.83,45.42-35.47,61.52-24.05,17.89-51.51,22.87-81.92,16.84-4.2-.83-5.47-2.48-4.08-6.12,1.73-4.51,3.66-8.93,6.49-13,16.24-23.27,39.65-38.96,67.73-49.68,1.91-.73,3.96-1.2,5.77-2.07,2.39-1.16,3.46-3.06,2.42-5.43-.95-2.17-3.05-2.85-5.51-2.58-1.37.15-2.73.48-4.03.88-33.51,10.44-60.92,27.94-79.27,55.09-10.8,15.98-13.31,33.07-3.67,50.47,6.87,12.39,18.7,18.53,33.28,22.1,18.2,4.67,37.15,4.11,56.85.65,6.53-1.15,9.19-3.24,8-6.39-1.77-4.7-6.1-3.08-9.68-2.52-17.29,2.68-33.97,2.26-50.11-1.35-14.51-3.95-25.08-12.13-28.87-25.92-.47-1.73-1.8-3.78-.09-5.22,1.57-1.33,3.6.15,5.36.6,20.75,5.22,41.59,6.01,61.89-.94,32.54-11.12,53.5-31.98,63.76-61.32,6.64-18.99,7.07-38.26,3.32-57.68h0Z"/>
</svg>